{"glyphs":{"0":{"ha":953,"x_min":0,"x_max":0,"o":"m 476 1089 b 921 524 788 1089 921 796 b 476 -42 921 251 789 -42 b 32 524 164 -42 32 251 b 476 1089 32 796 165 1089 m 476 849 b 303 525 336 849 303 626 b 476 199 303 424 336 199 b 650 525 617 199 650 424 b 476 849 650 626 617 849 "},"1":{"ha":953,"x_min":0,"x_max":0,"o":"m 224 817 l 224 1047 l 646 1047 l 646 0 l 374 0 l 374 817 "},"2":{"ha":953,"x_min":0,"x_max":0,"o":"m 888 231 l 888 0 l 46 0 l 474 465 b 593 722 535 532 593 626 b 474 858 593 789 546 858 b 360 731 400 858 360 801 b 364 686 360 717 361 701 l 64 686 b 472 1089 72 926 225 1089 b 876 717 692 1089 876 944 b 707 382 876 567 814 479 l 544 231 "},"3":{"ha":953,"x_min":0,"x_max":0,"o":"m 101 746 b 224 999 113 856 157 939 b 490 1089 290 1058 383 1089 b 825 785 678 1089 825 981 b 715 569 825 701 792 613 b 886 306 826 540 886 413 b 479 -42 886 76 688 -42 b 167 76 360 -42 251 -10 b 47 340 104 140 44 249 l 325 340 b 471 192 325 257 385 192 b 617 332 554 192 617 247 b 472 472 617 411 549 472 b 425 464 456 472 440 468 l 425 646 l 453 646 b 572 761 522 646 572 689 b 465 867 572 825 526 867 b 354 746 396 867 353 814 "},"4":{"ha":953,"x_min":0,"x_max":0,"o":"m 910 425 l 910 217 l 783 217 l 783 0 l 531 0 l 531 217 l 22 217 l 22 390 l 426 1047 l 783 1047 l 783 425 m 531 828 l 528 828 l 283 425 l 531 425 "},"5":{"ha":957,"x_min":0,"x_max":0,"o":"m 422 817 l 404 697 l 490 704 b 861 329 704 721 861 546 b 726 46 861 219 813 117 b 421 -42 643 -21 525 -42 b 79 53 301 -42 181 -12 l 119 310 b 411 189 200 238 303 189 b 578 343 497 189 578 251 b 349 522 578 469 457 522 b 149 479 279 522 211 508 l 240 1047 l 785 1047 l 785 817 "},"6":{"ha":953,"x_min":0,"x_max":0,"o":"m 733 1047 l 436 693 l 439 690 b 585 722 486 711 531 722 b 921 354 790 722 921 546 b 471 -42 921 97 710 -42 b 172 49 369 -42 253 -15 b 32 336 89 118 32 228 b 200 753 32 488 110 635 l 425 1047 m 469 172 b 638 346 565 172 638 250 b 469 517 638 440 565 517 b 297 346 375 517 297 440 b 469 172 297 250 375 172 "},"7":{"ha":953,"x_min":0,"x_max":0,"o":"m 99 817 l 99 1047 l 958 1047 l 357 0 l 58 0 l 536 817 "},"8":{"ha":953,"x_min":0,"x_max":0,"o":"m 476 900 b 361 782 413 900 361 847 b 476 664 361 717 413 664 b 592 782 540 664 592 717 b 476 900 592 847 540 900 m 476 440 b 351 310 407 440 351 382 b 476 182 351 239 407 182 b 601 310 546 182 601 239 b 476 440 601 382 546 440 m 476 1089 b 833 790 656 1089 833 990 b 668 553 833 679 764 585 l 668 550 b 876 275 793 508 876 413 b 476 -42 876 58 657 -42 b 76 275 296 -42 76 58 b 285 550 76 413 160 508 l 285 553 b 119 790 189 585 119 679 b 476 1089 119 990 297 1089 "},"9":{"ha":953,"x_min":0,"x_max":0,"o":"m 219 0 l 518 353 l 515 356 b 368 324 468 335 424 324 b 32 693 163 324 32 500 b 482 1089 32 950 243 1089 b 781 999 583 1089 700 1064 b 921 710 865 931 921 819 b 753 293 921 558 843 413 l 529 0 m 483 874 b 315 701 388 874 315 797 b 483 529 315 606 388 529 b 657 701 579 529 657 606 b 483 874 657 797 579 874 "}," ":{"ha":476,"x_min":0,"x_max":0,"o":""},"!":{"ha":533,"x_min":0,"x_max":0,"o":"m 267 297 b 429 135 357 297 429 225 b 267 -28 429 46 357 -28 b 104 135 176 -28 104 46 b 267 297 104 225 176 297 m 136 1047 l 399 1047 l 399 356 l 136 356 "},"\"":{"ha":694,"x_min":0,"x_max":0,"o":"m 301 1047 l 264 588 l 103 588 l 65 1047 m 629 1047 l 592 588 l 431 588 l 393 1047 "},"#":{"ha":953,"x_min":0,"x_max":0,"o":"m 515 1008 l 461 726 l 601 726 l 656 1008 l 801 1008 l 747 726 l 858 726 l 858 569 l 722 569 l 689 397 l 819 397 l 819 240 l 656 240 l 610 0 l 463 0 l 508 240 l 368 240 l 322 0 l 175 0 l 221 240 l 94 240 l 94 397 l 251 397 l 285 569 l 151 569 l 151 726 l 314 726 l 368 1008 m 399 397 l 540 397 l 576 569 l 432 569 "},"$":{"ha":953,"x_min":0,"x_max":0,"o":"m 208 331 b 460 214 272 271 371 214 b 590 315 518 214 590 247 b 372 447 590 393 482 407 b 154 719 264 488 154 550 b 438 1046 154 883 268 1035 l 438 1214 l 567 1214 l 567 1046 b 819 965 654 1038 744 1014 l 717 764 b 539 832 667 804 604 832 b 421 754 478 832 421 810 b 557 646 421 690 508 663 b 858 342 715 593 858 535 b 567 3 858 147 747 47 l 567 -171 l 438 -171 l 438 -6 b 258 29 376 -6 317 7 b 94 121 200 51 140 78 "},"%":{"ha":1354,"x_min":0,"x_max":0,"o":"m 313 1061 b 599 807 468 1061 599 974 b 313 549 599 638 472 549 b 26 807 153 549 26 638 b 313 1061 26 974 157 1061 m 313 922 b 194 804 247 922 194 869 b 313 688 194 739 247 688 b 431 804 378 688 431 739 b 313 922 431 869 378 922 m 1049 1047 l 440 0 l 304 0 l 913 1047 m 1042 499 b 1328 244 1197 499 1328 411 b 1042 -14 1328 75 1201 -14 b 756 244 882 -14 756 75 b 1042 499 756 411 886 499 m 1042 360 b 924 242 976 360 924 307 b 1042 125 924 176 976 125 b 1160 242 1107 125 1160 176 b 1042 360 1160 307 1107 360 "},"&":{"ha":1178,"x_min":0,"x_max":0,"o":"m 433 438 b 335 313 389 410 335 371 b 453 217 335 250 397 217 b 599 260 504 217 556 235 m 546 665 b 643 793 593 692 643 736 b 551 890 643 846 607 890 b 464 804 503 890 464 856 b 546 665 464 753 513 703 m 747 97 b 389 -28 643 26 515 -28 b 53 272 208 -28 53 81 b 278 564 53 429 146 506 l 303 575 l 281 606 b 206 788 247 651 206 701 b 531 1075 206 968 363 1075 b 858 790 697 1075 858 969 b 664 539 858 660 772 593 l 796 400 b 933 549 847 446 894 493 l 1088 401 l 956 260 l 943 247 l 1178 0 l 838 0 "},"’":{"ha":517,"x_min":0,"x_max":0,"o":"m 490 1047 l 235 588 l 74 588 l 254 1047 "},"(":{"ha":489,"x_min":0,"x_max":0,"o":"m 421 1011 b 261 381 307 828 261 594 b 421 -247 261 182 310 -79 l 269 -333 b 68 397 124 -143 68 163 b 269 1097 68 626 133 910 "},")":{"ha":489,"x_min":0,"x_max":0,"o":"m 219 1097 b 421 397 356 910 421 626 b 219 -333 421 163 365 -143 l 68 -247 b 228 381 179 -79 228 182 b 68 1011 228 594 182 828 "},"*":{"ha":671,"x_min":0,"x_max":0,"o":"m 397 1047 l 390 899 l 514 976 l 576 871 l 444 801 l 575 729 l 513 625 l 390 704 l 396 564 l 271 564 l 279 703 l 161 628 l 99 733 l 224 803 l 94 874 l 158 979 l 279 903 l 272 1047 "},"+":{"ha":953,"x_min":0,"x_max":0,"o":"m 372 713 l 581 713 l 581 461 l 832 461 l 832 253 l 581 253 l 581 0 l 372 0 l 372 253 l 121 253 l 121 461 l 372 461 "},",":{"ha":476,"x_min":0,"x_max":0,"o":"m 449 265 l 193 -196 l 31 -196 l 211 265 "},"-":{"ha":544,"x_min":0,"x_max":0,"o":"m 471 550 l 471 342 l 74 342 l 74 550 "},".":{"ha":476,"x_min":0,"x_max":0,"o":"m 239 297 b 401 135 329 297 401 225 b 239 -28 401 46 329 -28 b 76 135 149 -28 76 46 b 239 297 76 225 149 297 "},"/":{"ha":804,"x_min":0,"x_max":0,"o":"m 767 1153 l 236 -129 l 38 -129 l 568 1153 "},":":{"ha":476,"x_min":0,"x_max":0,"o":"m 239 297 b 401 135 329 297 401 225 b 239 -28 401 46 329 -28 b 76 135 149 -28 76 46 b 239 297 76 225 149 297 m 239 765 b 401 603 329 765 401 693 b 239 440 401 514 329 440 b 76 603 149 440 76 514 b 239 765 76 693 149 765 "},";":{"ha":476,"x_min":0,"x_max":0,"o":"m 429 265 l 174 -196 l 11 -196 l 192 265 m 303 765 b 465 603 393 765 465 693 b 303 440 465 514 393 440 b 140 603 213 440 140 514 b 303 765 140 693 213 765 "},"<":{"ha":953,"x_min":0,"x_max":0,"o":"m 138 440 l 817 693 l 817 485 l 436 358 l 436 356 l 817 229 l 817 21 l 138 274 "},"=":{"ha":953,"x_min":0,"x_max":0,"o":"m 832 628 l 832 419 l 121 419 l 121 628 m 832 294 l 832 86 l 121 86 l 121 294 "},">":{"ha":953,"x_min":0,"x_max":0,"o":"m 817 274 l 138 21 l 138 229 l 518 356 l 518 358 l 138 485 l 138 693 l 817 440 "},"?":{"ha":826,"x_min":0,"x_max":0,"o":"m 258 619 b 317 613 278 615 297 613 b 496 750 396 613 496 658 b 394 854 496 807 453 854 b 297 749 331 854 297 808 l 21 749 b 401 1075 22 960 206 1075 b 644 989 489 1075 576 1047 b 764 749 714 931 764 840 b 513 449 764 592 654 493 l 513 350 l 258 350 m 390 297 b 553 135 481 297 553 225 b 390 -28 553 46 481 -28 b 228 135 300 -28 228 46 b 390 297 228 225 300 297 "},"@":{"ha":1028,"x_min":0,"x_max":0,"o":"m 389 492 b 494 364 389 424 426 364 b 625 517 581 364 617 447 b 525 651 635 596 593 651 b 389 492 446 651 389 568 m 753 431 b 769 339 746 396 729 335 b 906 581 819 344 899 460 b 533 944 918 815 746 944 b 138 524 300 944 138 767 b 557 103 138 267 319 103 b 806 158 672 103 761 131 l 919 67 b 546 -28 822 17 694 -28 b 7 524 247 -28 7 206 b 538 1075 7 838 242 1075 b 864 954 660 1075 772 1038 b 1019 629 958 871 1019 761 b 933 333 1019 514 989 407 b 719 211 867 244 786 208 b 633 292 681 213 644 247 b 456 211 597 250 539 211 b 222 469 333 211 222 326 b 506 804 222 640 333 804 b 676 718 576 804 635 778 l 690 792 l 822 792 "},"A":{"ha":1085,"x_min":0,"x_max":0,"o":"m 356 182 l 283 0 l -6 0 l 397 1047 l 694 1047 l 1089 0 l 799 0 l 731 182 m 546 724 l 543 724 l 431 390 l 657 390 "},"B":{"ha":940,"x_min":0,"x_max":0,"o":"m 361 208 l 396 208 b 613 319 476 208 613 204 b 389 433 613 446 478 433 l 361 433 m 89 0 l 89 1047 l 478 1047 b 789 775 664 1047 789 975 b 674 561 789 681 758 604 l 674 558 b 888 292 824 539 888 438 b 508 0 888 72 700 0 m 361 636 l 392 636 b 539 738 464 636 539 649 b 381 839 539 833 454 839 l 361 839 "},"C":{"ha":917,"x_min":0,"x_max":0,"o":"m 838 696 b 599 811 782 771 692 811 b 319 521 432 811 319 683 b 603 236 319 356 433 236 b 838 347 692 236 781 279 l 838 21 b 597 -28 747 -7 682 -28 b 204 126 451 -28 313 28 b 36 522 89 231 36 367 b 190 906 36 665 90 803 b 589 1075 293 1011 442 1075 b 838 1022 676 1075 757 1056 "},"D":{"ha":1044,"x_min":0,"x_max":0,"o":"m 89 1047 l 475 1047 b 1007 524 767 1047 1007 818 b 475 0 1007 229 765 0 l 89 0 m 361 231 l 422 231 b 724 524 585 231 724 319 b 425 817 724 711 600 817 l 361 817 "},"E":{"ha":764,"x_min":0,"x_max":0,"o":"m 361 817 l 361 642 l 668 642 l 668 411 l 361 411 l 361 231 l 685 231 l 685 0 l 89 0 l 89 1047 l 685 1047 l 685 817 "},"F":{"ha":753,"x_min":0,"x_max":0,"o":"m 361 817 l 361 642 l 660 642 l 660 411 l 361 411 l 361 0 l 89 0 l 89 1047 l 690 1047 l 690 817 "},"G":{"ha":1169,"x_min":0,"x_max":0,"o":"m 1133 585 b 1026 171 1131 432 1119 301 b 594 -35 924 28 769 -35 b 36 518 265 -35 36 189 b 604 1082 36 858 267 1082 b 1076 789 819 1082 986 985 l 818 681 b 592 847 781 781 701 847 b 319 517 413 847 319 676 b 596 189 319 354 417 189 b 815 371 714 189 804 250 l 593 371 l 593 585 "},"H":{"ha":1115,"x_min":0,"x_max":0,"o":"m 754 643 l 754 1047 l 1026 1047 l 1026 0 l 754 0 l 754 429 l 361 429 l 361 0 l 89 0 l 89 1047 l 361 1047 l 361 643 "},"I":{"ha":450,"x_min":0,"x_max":0,"o":"m 361 0 l 89 0 l 89 1047 l 361 1047 "},"J":{"ha":679,"x_min":0,"x_max":0,"o":"m 596 1047 l 596 340 b 249 -28 596 119 481 -28 b -21 126 132 -28 42 31 l 136 292 b 246 203 167 250 210 203 b 324 357 326 203 324 299 l 324 1047 "},"K":{"ha":1053,"x_min":0,"x_max":0,"o":"m 693 1047 l 1031 1047 l 614 551 l 1068 0 l 715 0 l 364 454 l 361 454 l 361 0 l 89 0 l 89 1047 l 361 1047 l 361 615 l 364 615 "},"L":{"ha":688,"x_min":0,"x_max":0,"o":"m 361 231 l 688 231 l 688 0 l 89 0 l 89 1047 l 361 1047 "},"M":{"ha":1365,"x_min":0,"x_max":0,"o":"m 204 1047 l 472 1047 l 685 488 l 910 1047 l 1181 1047 l 1339 0 l 1067 0 l 990 603 l 988 603 l 736 0 l 628 0 l 388 603 l 385 603 l 297 0 l 26 0 "},"N":{"ha":1224,"x_min":0,"x_max":0,"o":"m 89 1047 l 361 1047 l 860 407 l 863 407 l 863 1047 l 1135 1047 l 1135 0 l 863 0 l 364 642 l 361 642 l 361 0 l 89 0 "},"O":{"ha":1232,"x_min":0,"x_max":0,"o":"m 615 1082 b 1194 543 917 1082 1194 860 b 615 -35 1194 204 951 -35 b 36 543 279 -35 36 204 b 615 1082 36 860 314 1082 m 615 818 b 319 542 453 818 319 686 b 615 229 319 361 453 229 b 911 542 778 229 911 361 b 615 818 911 686 778 818 "},"P":{"ha":918,"x_min":0,"x_max":0,"o":"m 89 1047 l 506 1047 b 886 703 731 1047 886 943 b 515 347 886 456 753 347 l 361 347 l 361 0 l 89 0 m 361 567 l 407 567 b 603 694 506 567 603 567 b 407 828 603 826 513 828 l 361 828 "},"Q":{"ha":1232,"x_min":0,"x_max":0,"o":"m 863 365 b 911 519 894 410 911 467 b 617 818 911 676 781 818 b 319 542 454 818 319 686 b 617 229 319 361 454 229 b 700 243 644 229 672 233 l 532 410 l 789 442 m 986 -65 l 903 33 b 615 -35 822 -15 728 -35 b 36 543 279 -35 36 204 b 615 1082 36 860 314 1082 b 1194 521 942 1082 1194 861 b 1060 153 1194 382 1147 261 l 1236 -26 "},"R":{"ha":944,"x_min":0,"x_max":0,"o":"m 960 0 l 621 0 l 364 403 l 361 403 l 361 0 l 89 0 l 89 1047 l 496 1047 b 860 725 703 1047 860 949 b 631 429 860 581 779 456 m 361 578 l 388 578 b 576 708 476 578 576 594 b 388 839 576 822 476 839 l 361 839 "},"S":{"ha":856,"x_min":0,"x_max":0,"o":"m 664 778 b 483 847 614 819 550 847 b 367 760 433 847 367 818 b 488 660 367 699 440 675 l 557 639 b 815 353 703 596 815 522 b 707 71 815 249 790 142 b 410 -28 625 1 515 -28 b 42 92 278 -28 149 17 l 158 311 b 400 203 226 251 307 203 b 532 308 464 203 532 235 b 367 428 532 385 425 411 b 83 724 196 476 83 521 b 444 1075 83 936 235 1075 b 772 989 550 1075 679 1042 "},"T":{"ha":740,"x_min":0,"x_max":0,"o":"m 506 0 l 233 0 l 233 817 l 8 817 l 8 1047 l 731 1047 l 731 817 l 506 817 "},"U":{"ha":1081,"x_min":0,"x_max":0,"o":"m 997 1047 l 997 458 b 888 89 997 324 992 190 b 540 -28 800 3 663 -28 b 193 89 418 -28 281 3 b 83 458 89 190 83 324 l 83 1047 l 356 1047 l 356 496 b 540 211 356 360 365 211 b 725 496 715 211 725 360 l 725 1047 "},"V":{"ha":1057,"x_min":0,"x_max":0,"o":"m 528 411 l 782 1047 l 1078 1047 l 631 0 l 419 0 l -21 1047 l 275 1047 "},"W":{"ha":1551,"x_min":0,"x_max":0,"o":"m 444 371 l 447 371 l 667 1047 l 883 1047 l 1089 371 l 1092 371 l 1289 1047 l 1572 1047 l 1238 0 l 960 0 l 776 607 l 774 607 l 568 0 l 292 0 l -21 1047 l 263 1047 "},"X":{"ha":1096,"x_min":0,"x_max":0,"o":"m 64 1047 l 399 1047 l 558 776 l 718 1047 l 1053 1047 l 718 560 l 1106 0 l 778 0 l 558 342 l 318 0 l -11 0 l 399 560 "},"Y":{"ha":992,"x_min":0,"x_max":0,"o":"m -26 1047 l 300 1047 l 496 763 l 692 1047 l 1018 1047 l 632 503 l 632 0 l 360 0 l 360 503 "},"Z":{"ha":982,"x_min":0,"x_max":0,"o":"m 913 231 l 913 0 l 15 0 l 511 817 l 100 817 l 100 1047 l 967 1047 l 474 231 "},"[":{"ha":486,"x_min":0,"x_max":0,"o":"m 265 -186 l 414 -186 l 414 -333 l 72 -333 l 72 1097 l 414 1097 l 414 950 l 265 950 "},"\\":{"ha":804,"x_min":0,"x_max":0,"o":"m 238 1153 l 767 0 l 569 0 l 38 1153 "},"]":{"ha":486,"x_min":0,"x_max":0,"o":"m 221 950 l 72 950 l 72 1097 l 414 1097 l 414 -333 l 72 -333 l 72 -186 l 221 -186 "},"^":{"ha":953,"x_min":0,"x_max":0,"o":"m 143 565 l 393 1089 l 560 1089 l 810 565 l 651 472 l 476 846 l 301 472 "},"_":{"ha":694,"x_min":0,"x_max":0,"o":"m 0 -174 l 0 -104 l 694 -104 l 694 -174 "},"‘":{"ha":517,"x_min":0,"x_max":0,"o":"m 26 588 l 282 1047 l 443 1047 l 263 588 "},"a":{"ha":947,"x_min":0,"x_max":0,"o":"m 456 517 b 293 356 353 517 293 443 b 456 196 293 265 353 196 b 618 356 558 196 618 265 b 456 517 618 443 558 517 m 863 0 l 610 0 l 610 79 l 607 79 b 392 -24 563 8 475 -24 b 32 357 181 -24 32 153 b 389 736 32 561 178 736 b 610 643 471 736 557 706 l 610 713 l 863 713 "},"b":{"ha":947,"x_min":0,"x_max":0,"o":"m 75 1153 l 328 1153 l 328 643 b 549 736 382 706 467 736 b 906 357 760 736 906 561 b 546 -24 906 151 758 -24 b 331 79 463 -24 376 8 l 328 79 l 328 0 l 75 0 m 482 517 b 319 356 379 517 319 443 b 482 196 319 265 379 196 b 644 356 585 196 644 265 b 482 517 644 443 585 517 "},"c":{"ha":671,"x_min":0,"x_max":0,"o":"m 597 481 b 467 531 560 508 515 531 b 293 357 369 531 293 456 b 471 182 293 254 367 182 b 597 231 515 182 564 200 l 597 17 b 419 -24 542 -11 481 -24 b 32 349 208 -24 32 133 b 431 736 32 578 207 736 b 597 694 489 736 547 722 "},"d":{"ha":947,"x_min":0,"x_max":0,"o":"m 619 79 l 617 79 b 401 -24 572 8 485 -24 b 42 357 190 -24 42 153 b 399 736 42 561 188 736 b 619 643 481 736 567 706 l 619 1153 l 872 1153 l 872 0 l 619 0 m 465 517 b 303 356 363 517 303 443 b 465 196 303 265 363 196 b 628 356 568 196 628 265 b 465 517 628 443 568 517 "},"e":{"ha":847,"x_min":0,"x_max":0,"o":"m 581 460 b 438 572 568 528 506 572 b 288 460 364 572 303 533 m 815 314 l 283 314 b 442 156 283 211 338 156 b 563 221 496 156 535 174 l 806 221 b 443 -24 765 53 606 -24 b 31 356 207 -24 31 110 b 425 736 31 593 193 736 b 815 340 672 736 815 583 "},"f":{"ha":539,"x_min":0,"x_max":0,"o":"m 361 0 l 108 0 l 108 504 l 19 504 l 19 713 l 108 713 l 108 803 b 181 1053 108 901 111 974 b 429 1167 243 1126 333 1167 b 538 1142 468 1167 503 1160 l 538 924 b 449 947 508 936 482 947 b 361 828 383 947 361 908 l 361 713 l 538 713 l 538 504 l 361 504 "},"g":{"ha":940,"x_min":0,"x_max":0,"o":"m 865 69 b 453 -356 865 -233 715 -356 b 47 -83 289 -356 69 -271 l 331 -83 b 378 -137 338 -108 356 -126 b 450 -154 400 -149 426 -154 b 613 50 586 -154 613 -65 l 613 83 b 386 -14 547 18 481 -14 b 35 350 178 -14 35 144 b 400 736 35 558 182 736 b 610 638 483 736 560 708 l 613 638 l 613 713 l 865 713 m 458 522 b 296 361 356 522 296 449 b 458 201 296 271 356 201 b 621 361 561 201 621 271 b 458 522 621 449 561 522 "},"h":{"ha":918,"x_min":0,"x_max":0,"o":"m 336 1153 l 336 622 l 339 622 b 567 736 397 700 468 736 b 835 436 747 736 835 617 l 835 0 l 582 0 l 582 365 b 468 535 582 449 569 535 b 336 365 368 535 336 449 l 336 0 l 83 0 l 83 1153 "},"i":{"ha":419,"x_min":0,"x_max":0,"o":"m 336 0 l 83 0 l 83 713 l 336 713 m 210 1128 b 351 986 288 1128 351 1064 b 210 844 351 908 288 844 b 68 986 132 844 68 908 b 210 1128 68 1064 132 1128 "},"j":{"ha":419,"x_min":0,"x_max":0,"o":"m 336 -356 l 83 -356 l 83 713 l 336 713 m 210 1128 b 351 986 288 1128 351 1064 b 210 844 351 908 288 844 b 68 986 132 844 68 908 b 210 1128 68 1064 132 1128 "},"k":{"ha":956,"x_min":0,"x_max":0,"o":"m 336 456 l 599 713 l 944 713 l 588 383 l 967 0 l 613 0 l 336 290 l 336 0 l 83 0 l 83 1153 l 336 1153 "},"l":{"ha":419,"x_min":0,"x_max":0,"o":"m 336 0 l 83 0 l 83 1153 l 336 1153 "},"m":{"ha":1374,"x_min":0,"x_max":0,"o":"m 336 624 l 339 624 b 564 736 399 703 472 736 b 807 600 667 736 756 694 b 1049 736 856 689 951 736 b 1292 454 1229 736 1292 618 l 1292 0 l 1039 0 l 1039 340 b 935 535 1039 414 1042 535 b 814 340 818 535 814 425 l 814 0 l 561 0 l 561 340 b 449 540 561 419 561 540 b 336 340 336 540 336 419 l 336 0 l 83 0 l 83 713 l 336 713 "},"n":{"ha":918,"x_min":0,"x_max":0,"o":"m 336 621 l 339 621 b 567 736 397 707 468 736 b 835 440 758 736 835 615 l 835 0 l 582 0 l 582 347 b 468 535 582 415 593 535 b 336 369 365 535 336 458 l 336 0 l 83 0 l 83 713 l 336 713 "},"o":{"ha":919,"x_min":0,"x_max":0,"o":"m 460 736 b 889 356 689 736 889 599 b 460 -24 889 114 689 -24 b 31 356 232 -24 31 113 b 460 736 31 599 231 736 m 460 517 b 297 356 357 517 297 443 b 460 196 297 265 357 196 b 622 356 563 196 622 265 b 460 517 622 443 563 517 "},"p":{"ha":947,"x_min":0,"x_max":0,"o":"m 328 632 l 331 632 b 546 736 376 703 463 736 b 906 354 758 736 906 558 b 549 -24 906 149 760 -24 b 328 68 467 -24 382 6 l 328 -356 l 75 -356 l 75 713 l 328 713 m 482 517 b 319 356 379 517 319 443 b 482 196 319 265 379 196 b 644 356 585 196 644 265 b 482 517 644 443 585 517 "},"q":{"ha":947,"x_min":0,"x_max":0,"o":"m 872 -356 l 619 -356 l 619 68 b 399 -24 567 6 481 -24 b 42 354 186 -24 42 149 b 401 736 42 557 190 736 b 617 632 485 736 572 703 l 619 632 l 619 713 l 872 713 m 465 517 b 303 356 363 517 303 443 b 465 196 303 265 363 196 b 628 356 568 196 628 265 b 465 517 628 443 568 517 "},"r":{"ha":629,"x_min":0,"x_max":0,"o":"m 336 596 l 339 596 b 569 722 388 683 471 722 l 618 722 l 618 479 b 511 503 583 499 550 503 b 336 288 371 503 336 410 l 336 0 l 83 0 l 83 713 l 336 713 "},"s":{"ha":713,"x_min":0,"x_max":0,"o":"m 554 529 b 418 564 515 550 461 564 b 339 515 389 564 339 551 b 453 453 339 467 418 460 b 660 242 571 429 660 374 b 324 -24 660 54 489 -24 b 36 58 222 -24 122 6 l 128 235 b 328 163 179 199 265 163 b 407 217 360 163 407 178 b 249 296 407 272 328 275 b 90 483 169 317 90 356 b 404 736 90 658 249 736 b 639 690 485 736 565 724 "},"t":{"ha":500,"x_min":0,"x_max":0,"o":"m 360 0 l 107 0 l 107 504 l 25 504 l 25 713 l 107 713 l 107 926 l 360 926 l 360 713 l 503 713 l 503 504 l 360 504 "},"u":{"ha":915,"x_min":0,"x_max":0,"o":"m 332 713 l 332 332 b 458 178 332 242 354 178 b 585 332 563 178 585 242 l 585 713 l 838 713 l 838 283 b 458 -24 838 49 672 -24 b 79 283 244 -24 79 49 l 79 713 "},"v":{"ha":865,"x_min":0,"x_max":0,"o":"m 433 347 l 603 713 l 886 713 l 514 0 l 353 0 l -21 713 l 263 713 "},"w":{"ha":1383,"x_min":0,"x_max":0,"o":"m 438 326 l 617 713 l 767 713 l 946 326 l 1125 713 l 1404 713 l 1032 0 l 868 0 l 692 390 l 515 0 l 351 0 l -21 713 l 260 713 "},"x":{"ha":989,"x_min":0,"x_max":0,"o":"m 46 713 l 367 713 l 494 565 l 622 713 l 949 713 l 654 386 l 1010 0 l 678 0 l 494 211 l 311 0 l -21 0 l 335 386 "},"y":{"ha":908,"x_min":0,"x_max":0,"o":"m -21 713 l 271 713 l 461 347 l 647 713 l 935 713 l 364 -356 l 81 -356 l 324 97 "},"z":{"ha":776,"x_min":0,"x_max":0,"o":"m 733 210 l 733 0 l 11 0 l 346 503 l 56 503 l 56 713 l 767 713 l 433 210 "},"{":{"ha":489,"x_min":0,"x_max":0,"o":"m 50 460 b 147 533 78 460 147 454 l 147 885 b 304 1097 147 1033 254 1097 l 439 1097 l 439 931 l 404 931 b 340 849 340 931 340 888 l 340 536 b 207 389 340 418 250 396 l 207 386 b 340 224 250 381 340 371 l 340 -85 b 404 -167 340 -125 340 -167 l 439 -167 l 439 -333 l 304 -333 b 147 -124 254 -333 147 -269 l 147 228 b 50 315 147 325 78 315 "},"|":{"ha":804,"x_min":0,"x_max":0,"o":"m 507 -297 l 299 -297 l 299 1092 l 507 1092 "},"}":{"ha":489,"x_min":0,"x_max":0,"o":"m 439 315 b 342 228 411 315 342 325 l 342 -124 b 185 -333 342 -269 235 -333 l 50 -333 l 50 -167 l 85 -167 b 149 -85 149 -167 149 -125 l 149 224 b 282 386 149 371 239 381 l 282 389 b 149 536 239 396 149 418 l 149 849 b 85 931 149 888 149 931 l 50 931 l 50 1097 l 185 1097 b 342 885 235 1097 342 1033 l 342 533 b 439 460 342 454 411 460 "},"~":{"ha":953,"x_min":0,"x_max":0,"o":"m 885 383 b 642 167 836 301 757 167 b 471 233 574 167 519 206 b 315 314 408 269 357 314 b 225 197 279 314 244 242 l 68 331 b 313 549 126 403 199 549 b 490 471 369 549 438 511 b 640 401 535 436 599 401 b 726 518 678 401 713 481 "},"¡":{"ha":533,"x_min":0,"x_max":0,"o":"m 267 739 b 429 576 357 739 429 667 b 267 414 429 488 357 414 b 104 576 176 414 104 488 b 267 739 104 667 176 739 m 399 354 l 399 -337 l 136 -337 l 136 354 "},"¢":{"ha":953,"x_min":0,"x_max":0,"o":"m 547 151 b 196 524 353 160 196 329 b 547 903 196 732 342 883 l 547 1032 l 676 1032 l 676 894 l 757 871 l 757 644 b 635 697 724 676 682 697 b 460 528 536 697 460 628 b 626 357 460 433 531 357 b 757 410 675 357 725 372 l 757 183 b 676 161 731 174 704 164 l 676 14 l 547 14 "},"£":{"ha":953,"x_min":0,"x_max":0,"o":"m 467 417 b 467 231 483 371 485 279 l 482 225 b 688 178 536 206 631 178 b 758 246 731 178 758 203 l 928 246 b 672 -22 917 93 836 -22 b 481 17 604 -22 546 -1 b 304 51 432 31 354 51 b 217 0 269 51 226 38 l 36 0 b 275 246 58 118 144 244 b 250 417 303 306 283 365 l 26 417 l 26 522 l 176 522 b 126 700 144 574 126 636 b 239 965 126 800 167 896 b 532 1067 319 1043 424 1067 b 918 672 807 1067 915 944 l 649 672 l 649 721 b 522 853 649 790 593 853 b 390 706 438 853 390 785 b 447 522 390 638 411 575 l 664 522 l 664 417 "},"⁄":{"ha":269,"x_min":0,"x_max":0,"o":"m 507 1047 l -101 0 l -237 0 l 371 1047 "},"¥":{"ha":953,"x_min":0,"x_max":0,"o":"m 682 619 l 604 503 l 879 503 l 879 397 l 604 397 l 604 0 l 349 0 l 349 397 l 71 397 l 71 503 l 347 503 l 268 619 l 71 619 l 71 725 l 199 725 l -15 1047 l 293 1047 l 476 763 l 660 1047 l 968 1047 l 753 725 l 879 725 l 879 619 "},"ƒ":{"ha":953,"x_min":0,"x_max":0,"o":"m 807 701 l 789 596 l 636 596 l 565 208 b 447 -118 544 89 522 -21 b 139 -251 365 -224 267 -262 l -8 -239 l 33 -10 b 132 -22 65 -15 99 -22 b 275 72 206 -22 246 3 b 322 272 297 128 311 211 l 381 596 l 261 596 l 278 701 l 400 701 l 428 851 b 514 1057 443 931 458 996 b 739 1153 574 1124 650 1153 b 919 1106 801 1153 867 1142 l 879 888 b 771 929 849 910 808 929 b 668 778 690 929 679 839 l 654 701 "},"§":{"ha":953,"x_min":0,"x_max":0,"o":"m 628 260 b 664 335 649 276 664 308 b 563 439 664 390 606 418 l 335 554 b 292 479 308 539 292 510 b 396 375 292 421 351 397 m 564 818 b 465 901 553 867 517 901 b 388 831 424 901 388 875 b 517 708 388 761 464 735 l 671 631 b 875 378 786 574 875 522 b 758 160 875 289 826 214 b 829 -21 807 117 829 43 b 467 -319 829 -222 649 -319 b 82 4 274 -319 72 -214 l 336 4 b 472 -122 333 -68 404 -122 b 578 -29 529 -122 578 -89 b 461 85 578 36 510 61 l 242 192 b 79 421 146 239 79 308 b 199 647 79 511 132 592 b 136 810 158 686 136 756 b 453 1075 136 986 293 1075 b 782 818 618 1075 774 1003 "},"¤":{"ha":953,"x_min":0,"x_max":0,"o":"m 160 303 b 90 525 117 360 90 439 b 160 754 90 611 114 699 l 68 847 l 154 935 l 247 842 b 481 914 306 886 394 914 b 703 842 565 914 650 886 l 796 935 l 882 849 l 796 761 b 871 528 840 701 871 614 b 793 304 871 442 840 357 l 885 213 l 801 122 l 708 214 b 481 139 653 167 567 139 b 246 215 390 139 306 165 l 154 124 l 68 211 m 481 706 b 299 521 376 706 299 624 b 481 347 299 415 378 347 b 663 521 583 347 663 415 b 481 706 663 624 585 706 "},"'":{"ha":347,"x_min":0,"x_max":0,"o":"m 292 1047 l 254 588 l 93 588 l 56 1047 "},"“":{"ha":872,"x_min":0,"x_max":0,"o":"m 382 588 l 638 1047 l 799 1047 l 618 588 m 26 588 l 282 1047 l 443 1047 l 263 588 "},"«":{"ha":838,"x_min":0,"x_max":0,"o":"m 764 203 l 621 103 l 382 444 l 621 786 l 760 690 l 585 444 m 418 203 l 275 103 l 36 444 l 275 786 l 414 690 l 239 444 "},"‹":{"ha":492,"x_min":0,"x_max":0,"o":"m 418 203 l 275 103 l 36 444 l 275 786 l 414 690 l 239 444 "},"›":{"ha":492,"x_min":0,"x_max":0,"o":"m 253 444 l 78 690 l 217 786 l 456 444 l 217 103 l 74 203 "},"ﬁ":{"ha":943,"x_min":0,"x_max":0,"o":"m 353 0 l 100 0 l 100 504 l 11 504 l 11 713 l 100 713 l 100 803 b 172 1053 100 901 103 974 b 421 1167 235 1126 325 1167 b 529 1142 460 1167 494 1160 l 529 924 b 440 947 500 936 474 947 b 353 828 375 947 353 908 l 353 713 l 529 713 l 529 504 l 353 504 m 860 0 l 607 0 l 607 713 l 860 713 m 733 1128 b 875 986 811 1128 875 1064 b 733 844 875 908 811 844 b 592 986 656 844 592 908 b 733 1128 592 1064 656 1128 "},"ﬂ":{"ha":958,"x_min":0,"x_max":0,"o":"m 875 0 l 622 0 l 622 1153 l 875 1153 m 353 0 l 100 0 l 100 504 l 11 504 l 11 713 l 100 713 l 100 803 b 172 1053 100 901 103 974 b 421 1167 235 1126 325 1167 b 529 1142 460 1167 494 1160 l 529 924 b 440 947 500 936 474 947 b 353 828 375 947 353 908 l 353 713 l 529 713 l 529 504 l 353 504 "},"–":{"ha":694,"x_min":0,"x_max":0,"o":"m 694 550 l 694 342 l 0 342 l 0 550 "},"†":{"ha":953,"x_min":0,"x_max":0,"o":"m 592 1047 l 592 763 l 838 763 l 838 563 l 592 563 l 592 -250 l 361 -250 l 361 563 l 117 563 l 117 763 l 361 763 l 361 1047 "},"‡":{"ha":953,"x_min":0,"x_max":0,"o":"m 593 1047 l 593 790 l 838 790 l 838 590 l 593 590 l 593 393 l 838 393 l 838 193 l 593 193 l 593 -249 l 363 -249 l 363 193 l 117 193 l 117 393 l 363 393 l 363 590 l 117 590 l 117 790 l 363 790 l 363 1047 "},"·":{"ha":476,"x_min":0,"x_max":0,"o":"m 239 518 b 401 356 329 518 401 446 b 239 193 401 267 329 193 b 76 356 149 193 76 267 b 239 518 76 446 149 518 "},"¶":{"ha":953,"x_min":0,"x_max":0,"o":"m 889 1047 l 889 921 l 797 921 l 797 -236 l 657 -236 l 657 919 l 528 919 l 528 -236 l 388 -236 l 388 403 b 67 701 226 418 90 486 b 365 1047 49 869 201 1047 "},"•":{"ha":953,"x_min":0,"x_max":0,"o":"m 478 786 b 739 524 628 786 739 668 b 478 263 739 381 628 263 b 215 524 328 263 215 381 b 478 786 215 668 328 786 "},"‚":{"ha":469,"x_min":0,"x_max":0,"o":"m 443 265 l 188 -194 l 26 -194 l 207 265 "},"„":{"ha":825,"x_min":0,"x_max":0,"o":"m 443 265 l 188 -194 l 26 -194 l 207 265 m 799 265 l 543 -194 l 382 -194 l 563 265 "},"”":{"ha":872,"x_min":0,"x_max":0,"o":"m 490 1047 l 235 588 l 74 588 l 254 1047 m 846 1047 l 590 588 l 429 588 l 610 1047 "},"»":{"ha":838,"x_min":0,"x_max":0,"o":"m 253 444 l 78 690 l 217 786 l 456 444 l 217 103 l 74 203 m 599 444 l 424 690 l 563 786 l 801 444 l 563 103 l 419 203 "},"…":{"ha":1389,"x_min":0,"x_max":0,"o":"m 694 297 b 857 135 785 297 857 225 b 694 -28 857 46 785 -28 b 532 135 604 -28 532 46 b 694 297 532 225 604 297 m 1157 297 b 1319 135 1247 297 1319 225 b 1157 -28 1319 46 1247 -28 b 994 135 1067 -28 994 46 b 1157 297 994 225 1067 297 m 232 297 b 394 135 322 297 394 225 b 232 -28 394 46 322 -28 b 69 135 142 -28 69 46 b 232 297 69 225 142 297 "},"‰":{"ha":2028,"x_min":0,"x_max":0,"o":"m 313 1061 b 599 807 468 1061 599 974 b 313 549 599 638 472 549 b 26 807 153 549 26 638 b 313 1061 26 974 157 1061 m 313 922 b 194 804 247 922 194 869 b 313 688 194 739 247 688 b 431 804 378 688 431 739 b 313 922 431 869 378 922 m 1049 1047 l 440 0 l 304 0 l 913 1047 m 1042 499 b 1328 244 1197 499 1328 411 b 1042 -14 1328 75 1201 -14 b 756 244 882 -14 756 75 b 1042 499 756 411 886 499 m 1042 360 b 924 242 976 360 924 307 b 1042 125 924 176 976 125 b 1160 242 1107 125 1160 176 b 1042 360 1160 307 1107 360 m 1715 499 b 2001 244 1871 499 2001 411 b 1715 -14 2001 75 1875 -14 b 1429 244 1556 -14 1429 75 b 1715 499 1429 411 1560 499 m 1715 360 b 1597 242 1650 360 1597 307 b 1715 125 1597 176 1650 125 b 1833 242 1781 125 1833 176 b 1715 360 1833 307 1781 360 "},"¿":{"ha":826,"x_min":0,"x_max":0,"o":"m 568 89 b 510 96 549 93 529 96 b 331 -42 431 96 331 50 b 432 -146 331 -99 374 -146 b 529 -40 496 -146 529 -100 l 806 -40 b 425 -367 804 -251 621 -367 b 182 -281 338 -367 250 -339 b 63 -40 113 -222 63 -132 b 314 260 63 117 172 215 l 314 358 l 568 358 m 436 739 b 599 576 526 739 599 667 b 436 414 599 488 526 414 b 274 576 346 414 274 488 b 436 739 274 667 346 739 "},"`":{"ha":558,"x_min":0,"x_max":0,"o":"m 258 1139 l 454 900 l 342 818 l 104 1028 "},"´":{"ha":558,"x_min":0,"x_max":0,"o":"m 217 818 l 104 900 l 300 1139 l 454 1028 "},"ˆ":{"ha":819,"x_min":0,"x_max":0,"o":"m 407 1151 l 714 924 l 607 807 l 407 961 l 207 807 l 104 924 "},"˜":{"ha":763,"x_min":0,"x_max":0,"o":"m 106 856 l 104 871 b 135 994 104 915 113 957 b 258 1072 160 1038 207 1072 b 485 1025 329 1072 429 1025 b 540 1075 519 1025 529 1046 l 658 1075 b 478 856 650 975 596 856 b 267 907 407 856 332 907 b 219 856 233 907 228 882 "},"¯":{"ha":838,"x_min":0,"x_max":0,"o":"m 732 1044 l 732 896 l 104 896 l 104 1044 "},"˘":{"ha":749,"x_min":0,"x_max":0,"o":"m 260 1089 b 374 996 269 1029 314 996 b 489 1089 435 996 479 1029 l 643 1089 b 374 854 635 936 522 854 b 104 1089 225 854 113 936 "},"˙":{"ha":558,"x_min":0,"x_max":0,"o":"m 281 1111 b 417 975 356 1111 417 1050 b 281 839 417 899 356 839 b 143 975 204 839 143 899 b 281 1111 143 1050 204 1111 "},"¨":{"ha":839,"x_min":0,"x_max":0,"o":"m 242 1111 b 378 975 317 1111 378 1050 b 242 839 378 899 317 839 b 104 975 165 839 104 899 b 242 1111 104 1050 165 1111 m 597 1111 b 733 975 672 1111 733 1050 b 597 839 733 899 672 839 b 460 975 521 839 460 899 b 597 1111 460 1050 521 1111 "},"˚":{"ha":635,"x_min":0,"x_max":0,"o":"m 315 1132 b 531 972 419 1132 531 1093 b 319 813 531 854 422 813 b 104 971 217 813 104 850 b 315 1132 104 1090 211 1132 m 318 1032 b 236 972 279 1032 236 1017 b 318 913 236 928 279 913 b 399 972 356 913 399 928 b 318 1032 399 1017 356 1032 "},"¸":{"ha":528,"x_min":0,"x_max":0,"o":"m 213 -329 l 104 -261 l 285 -42 l 422 -131 "},"˝":{"ha":749,"x_min":0,"x_max":0,"o":"m 283 833 l 154 833 l 174 1131 l 353 1131 m 525 833 l 396 833 l 415 1131 l 594 1131 "},"˛":{"ha":486,"x_min":0,"x_max":0,"o":"m 325 0 l 325 -3 b 242 -106 290 -22 242 -61 b 306 -169 242 -140 271 -169 b 381 -143 333 -169 357 -157 l 350 -271 b 239 -297 321 -289 274 -297 b 104 -178 174 -297 104 -247 b 221 0 104 -101 158 -37 "},"ˇ":{"ha":819,"x_min":0,"x_max":0,"o":"m 207 1151 l 407 996 l 607 1151 l 714 1033 l 407 807 l 104 1033 "},"—":{"ha":1389,"x_min":0,"x_max":0,"o":"m 1208 550 l 1208 342 l 181 342 l 181 550 "},"Æ":{"ha":1425,"x_min":0,"x_max":0,"o":"m 540 701 l 422 390 l 653 390 m 726 182 l 347 182 l 282 0 l -6 0 l 399 1047 l 1040 1047 l 1125 817 l 781 817 l 844 642 l 1188 642 l 1275 411 l 929 411 l 997 231 l 1342 231 l 1425 0 l 794 0 "},"ª":{"ha":568,"x_min":0,"x_max":0,"o":"m 290 750 b 396 847 349 750 396 793 b 290 944 396 901 349 944 b 185 847 232 944 185 901 b 290 750 185 793 232 750 m 390 681 l 388 681 b 249 619 360 639 303 619 b 15 847 111 619 15 725 b 247 1075 15 971 110 1075 b 390 1019 300 1075 356 1057 l 390 1061 l 554 1061 l 554 633 l 390 633 "},"Ł":{"ha":740,"x_min":0,"x_max":0,"o":"m 26 521 l 142 594 l 142 1047 l 414 1047 l 414 769 l 571 869 l 571 667 l 414 568 l 414 231 l 740 231 l 740 0 l 142 0 l 142 396 l 26 324 "},"Ø":{"ha":1232,"x_min":0,"x_max":0,"o":"m 764 778 b 615 818 721 803 669 818 b 319 542 453 818 319 686 b 361 382 319 482 333 428 m 468 269 b 615 229 511 243 561 229 b 911 542 778 229 911 361 b 875 668 911 588 899 631 m 154 179 b 36 543 79 276 36 400 b 615 1082 36 860 314 1082 b 963 974 742 1082 863 1043 l 1094 1103 l 1203 992 l 1078 868 b 1194 543 1150 782 1194 669 b 615 -35 1194 204 951 -35 b 267 72 482 -35 363 3 l 138 -56 l 29 56 "},"Œ":{"ha":1583,"x_min":0,"x_max":0,"o":"m 917 115 b 583 -35 822 13 718 -35 b 36 524 283 -35 36 226 b 583 1082 36 821 283 1082 b 917 951 718 1082 829 1039 l 917 1047 l 1506 1047 l 1506 817 l 1188 817 l 1188 642 l 1483 642 l 1483 411 l 1188 411 l 1188 231 l 1506 231 l 1506 0 l 917 0 m 613 818 b 319 524 451 818 319 686 b 613 229 319 363 451 229 b 904 524 775 229 904 363 b 613 818 904 686 775 818 "},"º":{"ha":569,"x_min":0,"x_max":0,"o":"m 285 1075 b 564 847 433 1075 564 993 b 285 619 564 701 433 619 b 7 847 136 619 7 701 b 285 1075 7 993 136 1075 m 285 943 b 181 847 226 943 181 900 b 285 751 181 793 226 751 b 390 847 343 751 390 793 b 285 943 390 900 343 943 "},"æ":{"ha":1306,"x_min":0,"x_max":0,"o":"m 1044 460 b 901 572 1032 528 969 572 b 751 460 828 572 767 533 m 381 303 b 275 226 335 303 275 282 b 389 150 275 168 342 150 b 515 225 431 150 515 168 b 381 303 515 288 428 303 m 743 314 b 901 156 743 211 797 156 b 1022 221 956 156 994 174 l 1265 221 b 903 -24 1225 53 1065 -24 b 617 117 793 -24 664 10 b 328 -24 549 29 439 -24 b 29 206 192 -24 29 49 b 322 443 29 375 172 443 b 510 407 390 443 446 433 l 510 428 b 340 553 510 526 425 553 b 142 514 269 553 207 535 l 142 703 b 349 736 208 721 279 736 b 617 610 450 736 567 707 b 885 736 674 696 785 736 b 1275 340 1132 736 1275 583 l 1275 314 "},"ı":{"ha":419,"x_min":0,"x_max":0,"o":"m 336 0 l 83 0 l 83 713 l 336 713 "},"ł":{"ha":508,"x_min":0,"x_max":0,"o":"m 128 460 l 11 389 l 11 561 l 128 633 l 128 1153 l 381 1153 l 381 783 l 497 854 l 497 681 l 381 610 l 381 0 l 128 0 "},"ø":{"ha":919,"x_min":0,"x_max":0,"o":"m 519 507 b 460 517 503 513 482 517 b 297 356 357 517 297 443 b 307 297 297 335 300 314 m 400 206 b 460 196 418 199 438 196 b 622 356 563 196 622 265 b 613 415 622 376 619 396 m 121 113 b 31 356 64 175 31 257 b 460 736 31 599 231 736 b 694 681 544 736 626 717 l 793 778 l 890 692 l 799 600 b 889 356 854 538 889 456 b 460 -24 889 114 689 -24 b 225 32 375 -24 294 -6 l 126 -65 l 29 22 "},"œ":{"ha":1419,"x_min":0,"x_max":0,"o":"m 1151 460 b 1008 572 1139 528 1076 572 b 858 460 935 572 874 533 m 458 517 b 296 356 369 517 296 443 b 458 196 296 265 369 196 b 621 356 547 196 621 265 b 458 517 621 443 547 517 m 1390 314 l 858 314 b 1017 156 858 211 913 156 b 1138 221 1071 156 1110 174 l 1381 221 b 1018 -24 1340 53 1181 -24 b 729 100 892 -24 794 8 b 440 -24 647 8 564 -24 b 29 356 207 -24 29 111 b 438 736 29 594 207 736 b 729 629 556 736 643 711 b 1000 736 792 711 901 736 b 1390 340 1247 736 1390 583 "},"ß":{"ha":904,"x_min":0,"x_max":0,"o":"m 83 818 b 169 1075 83 913 94 1008 b 444 1167 242 1142 347 1167 b 790 860 633 1167 790 1063 b 667 642 790 760 744 700 b 874 346 803 588 874 511 b 763 68 874 249 838 132 b 464 -24 683 -1 565 -24 l 410 -24 l 410 192 b 597 360 515 188 597 251 b 410 529 597 465 511 536 l 410 731 b 547 843 488 728 547 760 b 442 949 547 908 507 949 b 336 790 340 949 336 868 l 336 0 l 83 0 l 83 413 l 11 413 l 11 614 l 83 614 "},"¹":{"ha":572,"x_min":0,"x_max":0,"o":"m 129 926 l 129 1064 l 403 1064 l 403 436 l 226 436 l 226 926 "},"¬":{"ha":953,"x_min":0,"x_max":0,"o":"m 624 419 l 121 419 l 121 628 l 832 628 l 832 196 l 624 196 "},"µ":{"ha":915,"x_min":0,"x_max":0,"o":"m 332 713 l 332 332 b 458 178 332 242 354 178 b 585 332 563 178 585 242 l 585 713 l 838 713 l 838 283 b 514 -24 838 42 644 -24 b 332 44 425 -24 364 14 l 332 -356 l 79 -356 l 79 713 "},"™":{"ha":1306,"x_min":0,"x_max":0,"o":"m 1249 486 l 1126 486 l 1126 939 l 1124 939 l 961 486 l 889 486 l 726 939 l 724 939 l 724 486 l 601 486 l 601 1047 l 799 1047 l 925 715 l 1051 1047 l 1249 1047 m 533 939 l 363 939 l 363 486 l 228 486 l 228 939 l 57 939 l 57 1047 l 533 1047 "},"Ð":{"ha":1044,"x_min":0,"x_max":0,"o":"m 361 643 l 514 643 l 514 429 l 361 429 l 361 231 l 422 231 b 724 524 585 231 724 319 b 425 817 724 711 600 817 l 361 817 m 89 429 l -28 429 l -28 643 l 89 643 l 89 1047 l 442 1047 b 1007 524 772 1047 1007 828 b 444 0 1007 217 761 0 l 89 0 "},"½":{"ha":1429,"x_min":0,"x_max":0,"o":"m 139 910 l 139 1047 l 413 1047 l 413 419 l 236 419 l 236 910 m 1068 138 l 1290 138 l 1290 0 l 743 0 l 1022 279 b 1100 433 1061 318 1100 375 b 1022 514 1100 472 1068 514 b 947 438 974 514 947 481 b 950 411 947 429 949 421 l 756 411 b 1021 653 761 556 860 653 b 1283 429 1164 653 1283 567 b 1174 229 1283 339 1243 288 m 993 1047 l 385 0 l 249 0 l 857 1047 "},"±":{"ha":953,"x_min":0,"x_max":0,"o":"m 372 908 l 581 908 l 581 711 l 832 711 l 832 503 l 581 503 l 581 306 l 372 306 l 372 503 l 121 503 l 121 711 l 372 711 m 832 208 l 832 0 l 121 0 l 121 208 "},"Þ":{"ha":918,"x_min":0,"x_max":0,"o":"m 89 1047 l 361 1047 l 361 881 l 506 881 b 886 536 731 881 886 776 b 515 181 886 289 753 181 l 361 181 l 361 0 l 89 0 m 361 400 l 407 400 b 603 528 506 400 603 400 b 407 661 603 660 513 661 l 361 661 "},"¼":{"ha":1429,"x_min":0,"x_max":0,"o":"m 139 910 l 139 1047 l 413 1047 l 413 419 l 236 419 l 236 910 m 1290 256 l 1290 131 l 1208 131 l 1208 0 l 1044 0 l 1044 131 l 714 131 l 714 235 l 976 628 l 1208 628 l 1208 256 m 1044 496 l 1042 496 l 883 254 l 1044 254 m 1032 1047 l 424 0 l 288 0 l 896 1047 "},"÷":{"ha":953,"x_min":0,"x_max":0,"o":"m 832 461 l 832 253 l 121 253 l 121 461 m 476 176 b 576 76 532 176 576 132 b 476 -24 576 21 532 -24 b 376 76 421 -24 376 21 b 476 176 376 132 421 176 m 476 738 b 576 638 532 738 576 693 b 476 538 576 582 532 538 b 376 638 421 538 376 582 b 476 738 376 693 421 738 "},"¦":{"ha":804,"x_min":0,"x_max":0,"o":"m 507 -124 l 299 -124 l 299 224 l 507 224 m 507 571 l 299 571 l 299 918 l 507 918 "},"°":{"ha":556,"x_min":0,"x_max":0,"o":"m 486 865 b 276 658 486 751 390 658 b 69 865 160 658 69 751 b 276 1075 67 981 160 1075 b 486 865 390 1075 486 981 m 368 867 b 276 957 368 915 328 957 b 188 867 228 957 186 915 b 278 776 188 817 228 776 b 368 867 328 776 368 817 "},"þ":{"ha":947,"x_min":0,"x_max":0,"o":"m 328 632 l 331 632 b 546 736 376 703 463 736 b 906 354 758 736 906 558 b 549 -24 906 149 760 -24 b 328 68 467 -24 382 6 l 328 -356 l 75 -356 l 75 1153 l 328 1153 m 482 517 b 319 356 379 517 319 443 b 482 196 319 265 379 196 b 644 356 585 196 644 265 b 482 517 644 443 585 517 "},"¾":{"ha":1429,"x_min":0,"x_max":0,"o":"m 1360 256 l 1360 131 l 1278 131 l 1278 0 l 1114 0 l 1114 131 l 783 131 l 783 235 l 1046 628 l 1278 628 l 1278 256 m 1114 496 l 1111 496 l 953 254 l 1114 254 m 1151 1047 l 543 0 l 407 0 l 1015 1047 m 332 782 b 410 851 378 782 410 808 b 340 914 410 889 381 914 b 268 842 296 914 268 882 l 104 842 b 357 1047 118 972 217 1047 b 575 865 479 1047 575 982 b 503 736 575 815 553 763 b 614 578 575 719 614 642 b 350 371 614 442 485 371 b 147 442 272 371 201 390 b 69 599 106 479 67 544 l 250 599 b 276 536 250 574 260 551 b 344 511 293 521 317 511 b 439 594 399 511 439 543 b 346 678 439 642 394 678 b 314 674 335 678 325 675 l 314 782 "},"²":{"ha":572,"x_min":0,"x_max":0,"o":"m 329 574 l 551 574 l 551 436 l 4 436 l 283 715 b 361 869 322 754 361 811 b 283 950 361 908 329 950 b 208 874 235 950 208 917 b 211 847 208 865 210 857 l 17 847 b 282 1089 22 992 121 1089 b 544 865 425 1089 544 1003 b 435 665 544 775 504 724 "},"®":{"ha":1111,"x_min":0,"x_max":0,"o":"m 556 -28 b 6 522 249 -28 6 218 b 556 1075 6 829 249 1075 b 1106 522 861 1075 1106 829 b 556 -28 1106 218 861 -28 m 556 103 b 975 522 792 103 975 278 b 556 944 975 769 792 944 b 136 522 315 944 136 769 b 556 103 136 278 315 103 m 819 243 l 681 243 l 553 485 l 464 485 l 464 243 l 336 243 l 336 815 l 614 815 b 836 640 746 815 836 792 b 681 485 836 535 782 492 m 617 571 b 717 657 681 571 717 585 b 588 715 717 715 643 715 l 464 715 l 464 571 "},"−":{"ha":953,"x_min":0,"x_max":0,"o":"m 832 461 l 832 253 l 121 253 l 121 461 "},"ð":{"ha":919,"x_min":0,"x_max":0,"o":"m 204 1178 b 424 1063 351 1110 386 1088 l 600 1156 l 690 1054 l 546 978 b 889 413 722 831 889 678 b 451 -24 889 106 672 -24 b 31 354 275 -24 31 88 b 410 719 31 585 225 719 b 492 711 444 719 468 715 b 335 867 447 767 392 822 l 154 771 l 63 869 l 214 950 b 57 1033 164 982 110 1011 m 460 517 b 297 356 357 517 297 443 b 460 196 297 265 357 196 b 622 356 563 196 622 265 b 460 517 622 443 563 517 "},"×":{"ha":953,"x_min":0,"x_max":0,"o":"m 121 565 l 268 713 l 476 501 l 683 713 l 831 565 l 624 356 l 832 147 l 685 0 l 476 208 l 268 0 l 121 147 l 331 356 "},"³":{"ha":572,"x_min":0,"x_max":0,"o":"m 186 640 b 281 553 186 590 225 553 b 375 636 335 553 375 585 b 282 719 375 683 331 719 b 250 715 271 719 261 717 l 250 824 l 268 824 b 346 893 314 824 346 850 b 276 956 346 931 317 956 b 204 883 232 956 204 924 l 40 883 b 293 1089 54 1014 153 1089 b 511 907 415 1089 511 1024 b 439 778 511 857 489 804 b 550 619 511 761 550 683 b 286 413 550 483 421 413 b 83 483 208 413 138 432 b 6 640 42 521 3 586 "},"©":{"ha":1111,"x_min":0,"x_max":0,"o":"m 556 -28 b 6 522 249 -28 6 218 b 556 1075 6 829 249 1075 b 1106 522 861 1075 1106 829 b 556 -28 1106 218 861 -28 m 556 103 b 975 522 792 103 975 278 b 556 944 975 769 792 944 b 136 522 315 944 136 769 b 556 103 136 278 315 103 m 711 638 b 575 739 700 706 643 739 b 404 531 465 739 404 640 b 579 318 404 426 472 318 b 711 425 644 318 707 358 l 836 425 b 579 211 821 292 707 211 b 274 528 394 211 274 351 b 576 846 274 711 388 846 b 836 638 708 846 814 768 "},"Á":{"ha":1085,"x_min":0,"x_max":0,"o":"m 356 182 l 283 0 l -6 0 l 397 1047 l 694 1047 l 1089 0 l 799 0 l 731 182 m 546 724 l 543 724 l 431 390 l 657 390 m 508 1111 l 396 1193 l 592 1432 l 746 1321 "},"Â":{"ha":1085,"x_min":0,"x_max":0,"o":"m 356 182 l 283 0 l -6 0 l 397 1047 l 694 1047 l 1089 0 l 799 0 l 731 182 m 546 724 l 543 724 l 431 390 l 657 390 m 540 1444 l 847 1217 l 740 1100 l 540 1254 l 340 1100 l 238 1217 "},"Ä":{"ha":1085,"x_min":0,"x_max":0,"o":"m 356 182 l 283 0 l -6 0 l 397 1047 l 694 1047 l 1089 0 l 799 0 l 731 182 m 546 724 l 543 724 l 431 390 l 657 390 m 365 1404 b 501 1268 440 1404 501 1343 b 365 1132 501 1192 440 1132 b 228 1268 289 1132 228 1192 b 365 1404 228 1343 289 1404 m 721 1404 b 857 1268 796 1404 857 1343 b 721 1132 857 1192 796 1132 b 583 1268 644 1132 583 1192 b 721 1404 583 1343 644 1404 "},"À":{"ha":1085,"x_min":0,"x_max":0,"o":"m 356 182 l 283 0 l -6 0 l 397 1047 l 694 1047 l 1089 0 l 799 0 l 731 182 m 546 724 l 543 724 l 431 390 l 657 390 m 494 1432 l 690 1193 l 578 1111 l 340 1321 "},"Å":{"ha":1085,"x_min":0,"x_max":0,"o":"m 356 182 l 283 0 l -6 0 l 397 1047 l 694 1047 l 1089 0 l 799 0 l 731 182 m 546 724 l 543 724 l 431 390 l 657 390 m 540 1404 b 756 1244 644 1404 756 1365 b 544 1085 756 1126 647 1085 b 329 1243 442 1085 329 1122 b 540 1404 329 1363 436 1404 m 543 1304 b 461 1244 504 1304 461 1289 b 543 1185 461 1200 504 1185 b 624 1244 581 1185 624 1200 b 543 1304 624 1289 581 1304 "},"Ã":{"ha":1085,"x_min":0,"x_max":0,"o":"m 356 182 l 283 0 l -6 0 l 397 1047 l 694 1047 l 1089 0 l 799 0 l 731 182 m 546 724 l 543 724 l 431 390 l 657 390 m 267 1149 l 265 1164 b 296 1288 265 1208 274 1250 b 419 1365 321 1331 368 1365 b 646 1318 490 1365 590 1318 b 701 1368 681 1318 690 1339 l 819 1368 b 639 1149 811 1268 757 1149 b 428 1200 568 1149 493 1200 b 381 1149 394 1200 389 1175 "},"Ç":{"ha":917,"x_min":0,"x_max":0,"o":"m 838 696 b 599 811 782 771 692 811 b 319 521 432 811 319 683 b 603 236 319 356 433 236 b 838 347 692 236 781 279 l 838 21 b 597 -28 747 -7 682 -28 b 204 126 451 -28 313 28 b 36 522 89 231 36 367 b 190 906 36 665 90 803 b 589 1075 293 1011 442 1075 b 838 1022 676 1075 757 1056 m 442 -329 l 333 -261 l 514 -42 l 651 -131 "},"É":{"ha":764,"x_min":0,"x_max":0,"o":"m 361 817 l 361 642 l 668 642 l 668 411 l 361 411 l 361 231 l 685 231 l 685 0 l 89 0 l 89 1047 l 685 1047 l 685 817 m 319 1111 l 207 1193 l 403 1432 l 557 1321 "},"Ê":{"ha":764,"x_min":0,"x_max":0,"o":"m 361 817 l 361 642 l 668 642 l 668 411 l 361 411 l 361 231 l 685 231 l 685 0 l 89 0 l 89 1047 l 685 1047 l 685 817 m 379 1444 l 686 1217 l 579 1100 l 379 1254 l 179 1100 l 76 1217 "},"Ë":{"ha":764,"x_min":0,"x_max":0,"o":"m 361 817 l 361 642 l 668 642 l 668 411 l 361 411 l 361 231 l 685 231 l 685 0 l 89 0 l 89 1047 l 685 1047 l 685 817 m 204 1404 b 340 1268 279 1404 340 1343 b 204 1132 340 1192 279 1132 b 67 1268 128 1132 67 1192 b 204 1404 67 1343 128 1404 m 560 1404 b 696 1268 635 1404 696 1343 b 560 1132 696 1192 635 1132 b 422 1268 483 1132 422 1192 b 560 1404 422 1343 483 1404 "},"È":{"ha":764,"x_min":0,"x_max":0,"o":"m 361 817 l 361 642 l 668 642 l 668 411 l 361 411 l 361 231 l 685 231 l 685 0 l 89 0 l 89 1047 l 685 1047 l 685 817 m 361 1432 l 557 1193 l 444 1111 l 207 1321 "},"Í":{"ha":450,"x_min":0,"x_max":0,"o":"m 361 0 l 89 0 l 89 1047 l 361 1047 m 183 1111 l 71 1193 l 267 1432 l 421 1321 "},"Î":{"ha":450,"x_min":0,"x_max":0,"o":"m 361 0 l 89 0 l 89 1047 l 361 1047 m 243 1444 l 550 1217 l 443 1100 l 243 1254 l 43 1100 l -60 1217 "},"Ï":{"ha":450,"x_min":0,"x_max":0,"o":"m 361 0 l 89 0 l 89 1047 l 361 1047 m 47 1404 b 183 1268 122 1404 183 1343 b 47 1132 183 1192 122 1132 b -90 1268 -29 1132 -90 1192 b 47 1404 -90 1343 -29 1404 m 403 1404 b 539 1268 478 1404 539 1343 b 403 1132 539 1192 478 1132 b 265 1268 326 1132 265 1192 b 403 1404 265 1343 326 1404 "},"Ì":{"ha":450,"x_min":0,"x_max":0,"o":"m 361 0 l 89 0 l 89 1047 l 361 1047 m 183 1432 l 379 1193 l 267 1111 l 29 1321 "},"Ñ":{"ha":1224,"x_min":0,"x_max":0,"o":"m 89 1047 l 361 1047 l 860 407 l 863 407 l 863 1047 l 1135 1047 l 1135 0 l 863 0 l 364 642 l 361 642 l 361 0 l 89 0 m 336 1149 l 335 1164 b 365 1288 335 1208 343 1250 b 489 1365 390 1331 438 1365 b 715 1318 560 1365 660 1318 b 771 1368 750 1318 760 1339 l 889 1368 b 708 1149 881 1268 826 1149 b 497 1200 638 1149 563 1200 b 450 1149 464 1200 458 1175 "},"Ó":{"ha":1232,"x_min":0,"x_max":0,"o":"m 615 1082 b 1194 543 917 1082 1194 860 b 615 -35 1194 204 951 -35 b 36 543 279 -35 36 204 b 615 1082 36 860 314 1082 m 615 818 b 319 542 453 818 319 686 b 615 229 319 361 453 229 b 911 542 778 229 911 361 b 615 818 911 686 778 818 m 582 1111 l 469 1193 l 665 1432 l 819 1321 "},"Ô":{"ha":1232,"x_min":0,"x_max":0,"o":"m 615 1082 b 1194 543 917 1082 1194 860 b 615 -35 1194 204 951 -35 b 36 543 279 -35 36 204 b 615 1082 36 860 314 1082 m 615 818 b 319 542 453 818 319 686 b 615 229 319 361 453 229 b 911 542 778 229 911 361 b 615 818 911 686 778 818 m 614 1444 l 921 1217 l 814 1100 l 614 1254 l 414 1100 l 311 1217 "},"Ö":{"ha":1232,"x_min":0,"x_max":0,"o":"m 615 1082 b 1194 543 917 1082 1194 860 b 615 -35 1194 204 951 -35 b 36 543 279 -35 36 204 b 615 1082 36 860 314 1082 m 615 818 b 319 542 453 818 319 686 b 615 229 319 361 453 229 b 911 542 778 229 911 361 b 615 818 911 686 778 818 m 439 1404 b 575 1268 514 1404 575 1343 b 439 1132 575 1192 514 1132 b 301 1268 363 1132 301 1192 b 439 1404 301 1343 363 1404 m 794 1404 b 931 1268 869 1404 931 1343 b 794 1132 931 1192 869 1132 b 657 1268 718 1132 657 1192 b 794 1404 657 1343 718 1404 "},"Ò":{"ha":1232,"x_min":0,"x_max":0,"o":"m 615 1082 b 1194 543 917 1082 1194 860 b 615 -35 1194 204 951 -35 b 36 543 279 -35 36 204 b 615 1082 36 860 314 1082 m 615 818 b 319 542 453 818 319 686 b 615 229 319 361 453 229 b 911 542 778 229 911 361 b 615 818 911 686 778 818 m 568 1432 l 764 1193 l 651 1111 l 414 1321 "},"Õ":{"ha":1232,"x_min":0,"x_max":0,"o":"m 615 1082 b 1194 543 917 1082 1194 860 b 615 -35 1194 204 951 -35 b 36 543 279 -35 36 204 b 615 1082 36 860 314 1082 m 615 818 b 319 542 453 818 319 686 b 615 229 319 361 453 229 b 911 542 778 229 911 361 b 615 818 911 686 778 818 m 340 1149 l 339 1164 b 369 1288 339 1208 347 1250 b 493 1365 394 1331 442 1365 b 719 1318 564 1365 664 1318 b 775 1368 754 1318 764 1339 l 893 1368 b 713 1149 885 1268 831 1149 b 501 1200 642 1149 567 1200 b 454 1149 468 1200 463 1175 "},"Š":{"ha":856,"x_min":0,"x_max":0,"o":"m 664 778 b 483 847 614 819 550 847 b 367 760 433 847 367 818 b 488 660 367 699 440 675 l 557 639 b 815 353 703 596 815 522 b 707 71 815 249 790 142 b 410 -28 625 1 515 -28 b 42 92 278 -28 149 17 l 158 311 b 400 203 226 251 307 203 b 532 308 464 203 532 235 b 367 428 532 385 425 411 b 83 724 196 476 83 521 b 444 1075 83 936 235 1075 b 772 989 550 1075 679 1042 m 225 1444 l 425 1289 l 625 1444 l 732 1326 l 425 1100 l 122 1326 "},"Ú":{"ha":1081,"x_min":0,"x_max":0,"o":"m 997 1047 l 997 458 b 888 89 997 324 992 190 b 540 -28 800 3 663 -28 b 193 89 418 -28 281 3 b 83 458 89 190 83 324 l 83 1047 l 356 1047 l 356 496 b 540 211 356 360 365 211 b 725 496 715 211 725 360 l 725 1047 m 506 1111 l 393 1193 l 589 1432 l 743 1321 "},"Û":{"ha":1081,"x_min":0,"x_max":0,"o":"m 997 1047 l 997 458 b 888 89 997 324 992 190 b 540 -28 800 3 663 -28 b 193 89 418 -28 281 3 b 83 458 89 190 83 324 l 83 1047 l 356 1047 l 356 496 b 540 211 356 360 365 211 b 725 496 715 211 725 360 l 725 1047 m 538 1444 l 844 1217 l 738 1100 l 538 1254 l 338 1100 l 235 1217 "},"Ü":{"ha":1081,"x_min":0,"x_max":0,"o":"m 997 1047 l 997 458 b 888 89 997 324 992 190 b 540 -28 800 3 663 -28 b 193 89 418 -28 281 3 b 83 458 89 190 83 324 l 83 1047 l 356 1047 l 356 496 b 540 211 356 360 365 211 b 725 496 715 211 725 360 l 725 1047 m 363 1404 b 499 1268 438 1404 499 1343 b 363 1132 499 1192 438 1132 b 225 1268 286 1132 225 1192 b 363 1404 225 1343 286 1404 m 718 1404 b 854 1268 793 1404 854 1343 b 718 1132 854 1192 793 1132 b 581 1268 642 1132 581 1192 b 718 1404 581 1343 642 1404 "},"Ù":{"ha":1081,"x_min":0,"x_max":0,"o":"m 997 1047 l 997 458 b 888 89 997 324 992 190 b 540 -28 800 3 663 -28 b 193 89 418 -28 281 3 b 83 458 89 190 83 324 l 83 1047 l 356 1047 l 356 496 b 540 211 356 360 365 211 b 725 496 715 211 725 360 l 725 1047 m 492 1432 l 688 1193 l 575 1111 l 338 1321 "},"Ý":{"ha":992,"x_min":0,"x_max":0,"o":"m -26 1047 l 300 1047 l 496 763 l 692 1047 l 1018 1047 l 632 503 l 632 0 l 360 0 l 360 503 m 489 1111 l 376 1193 l 572 1432 l 726 1321 "},"Ÿ":{"ha":992,"x_min":0,"x_max":0,"o":"m -26 1047 l 300 1047 l 496 763 l 692 1047 l 1018 1047 l 632 503 l 632 0 l 360 0 l 360 503 m 332 1404 b 468 1268 407 1404 468 1343 b 332 1132 468 1192 407 1132 b 194 1268 256 1132 194 1192 b 332 1404 194 1343 256 1404 m 688 1404 b 824 1268 763 1404 824 1343 b 688 1132 824 1192 763 1132 b 550 1268 611 1132 550 1192 b 688 1404 550 1343 611 1404 "},"Ž":{"ha":982,"x_min":0,"x_max":0,"o":"m 913 231 l 913 0 l 15 0 l 511 817 l 100 817 l 100 1047 l 967 1047 l 474 231 m 303 1444 l 503 1289 l 703 1444 l 810 1326 l 503 1100 l 200 1326 "},"á":{"ha":947,"x_min":0,"x_max":0,"o":"m 456 517 b 293 356 353 517 293 443 b 456 196 293 265 353 196 b 618 356 558 196 618 265 b 456 517 618 443 558 517 m 863 0 l 610 0 l 610 79 l 607 79 b 392 -24 563 8 475 -24 b 32 357 181 -24 32 153 b 389 736 32 561 178 736 b 610 643 471 736 557 706 l 610 713 l 863 713 m 439 818 l 326 900 l 522 1139 l 676 1028 "},"â":{"ha":947,"x_min":0,"x_max":0,"o":"m 456 517 b 293 356 353 517 293 443 b 456 196 293 265 353 196 b 618 356 558 196 618 265 b 456 517 618 443 558 517 m 863 0 l 610 0 l 610 79 l 607 79 b 392 -24 563 8 475 -24 b 32 357 181 -24 32 153 b 389 736 32 561 178 736 b 610 643 471 736 557 706 l 610 713 l 863 713 m 471 1151 l 778 924 l 671 807 l 471 961 l 271 807 l 168 924 "},"ä":{"ha":947,"x_min":0,"x_max":0,"o":"m 456 517 b 293 356 353 517 293 443 b 456 196 293 265 353 196 b 618 356 558 196 618 265 b 456 517 618 443 558 517 m 863 0 l 610 0 l 610 79 l 607 79 b 392 -24 563 8 475 -24 b 32 357 181 -24 32 153 b 389 736 32 561 178 736 b 610 643 471 736 557 706 l 610 713 l 863 713 m 296 1111 b 432 975 371 1111 432 1050 b 296 839 432 899 371 839 b 158 975 219 839 158 899 b 296 1111 158 1050 219 1111 m 651 1111 b 788 975 726 1111 788 1050 b 651 839 788 899 726 839 b 514 975 575 839 514 899 b 651 1111 514 1050 575 1111 "},"à":{"ha":947,"x_min":0,"x_max":0,"o":"m 456 517 b 293 356 353 517 293 443 b 456 196 293 265 353 196 b 618 356 558 196 618 265 b 456 517 618 443 558 517 m 863 0 l 610 0 l 610 79 l 607 79 b 392 -24 563 8 475 -24 b 32 357 181 -24 32 153 b 389 736 32 561 178 736 b 610 643 471 736 557 706 l 610 713 l 863 713 m 453 1139 l 649 900 l 536 818 l 299 1028 "},"å":{"ha":947,"x_min":0,"x_max":0,"o":"m 456 517 b 293 356 353 517 293 443 b 456 196 293 265 353 196 b 618 356 558 196 618 265 b 456 517 618 443 558 517 m 863 0 l 610 0 l 610 79 l 607 79 b 392 -24 563 8 475 -24 b 32 357 181 -24 32 153 b 389 736 32 561 178 736 b 610 643 471 736 557 706 l 610 713 l 863 713 m 472 1132 b 688 972 576 1132 688 1093 b 476 813 688 854 579 813 b 261 971 374 813 261 850 b 472 1132 261 1090 368 1132 m 475 1032 b 393 972 436 1032 393 1017 b 475 913 393 928 436 913 b 556 972 513 913 556 928 b 475 1032 556 1017 513 1032 "},"ã":{"ha":947,"x_min":0,"x_max":0,"o":"m 456 517 b 293 356 353 517 293 443 b 456 196 293 265 353 196 b 618 356 558 196 618 265 b 456 517 618 443 558 517 m 863 0 l 610 0 l 610 79 l 607 79 b 392 -24 563 8 475 -24 b 32 357 181 -24 32 153 b 389 736 32 561 178 736 b 610 643 471 736 557 706 l 610 713 l 863 713 m 199 856 l 197 871 b 228 994 197 915 206 957 b 351 1072 253 1038 300 1072 b 578 1025 422 1072 522 1025 b 633 1075 613 1025 622 1046 l 751 1075 b 571 856 743 975 689 856 b 360 907 500 856 425 907 b 313 856 326 907 321 882 "},"ç":{"ha":671,"x_min":0,"x_max":0,"o":"m 597 481 b 467 531 560 508 515 531 b 293 357 369 531 293 456 b 471 182 293 254 367 182 b 597 231 515 182 564 200 l 597 17 b 419 -24 542 -11 481 -24 b 32 349 208 -24 32 133 b 431 736 32 578 207 736 b 597 694 489 736 547 722 m 285 -329 l 176 -261 l 357 -42 l 494 -131 "},"é":{"ha":847,"x_min":0,"x_max":0,"o":"m 581 460 b 438 572 568 528 506 572 b 288 460 364 572 303 533 m 815 314 l 283 314 b 442 156 283 211 338 156 b 563 221 496 156 535 174 l 806 221 b 443 -24 765 53 606 -24 b 31 356 207 -24 31 110 b 425 736 31 593 193 736 b 815 340 672 736 815 583 m 396 818 l 283 900 l 479 1139 l 633 1028 "},"ê":{"ha":847,"x_min":0,"x_max":0,"o":"m 581 460 b 438 572 568 528 506 572 b 288 460 364 572 303 533 m 815 314 l 283 314 b 442 156 283 211 338 156 b 563 221 496 156 535 174 l 806 221 b 443 -24 765 53 606 -24 b 31 356 207 -24 31 110 b 425 736 31 593 193 736 b 815 340 672 736 815 583 m 421 1151 l 728 924 l 621 807 l 421 961 l 221 807 l 118 924 "},"ë":{"ha":847,"x_min":0,"x_max":0,"o":"m 581 460 b 438 572 568 528 506 572 b 288 460 364 572 303 533 m 815 314 l 283 314 b 442 156 283 211 338 156 b 563 221 496 156 535 174 l 806 221 b 443 -24 765 53 606 -24 b 31 356 207 -24 31 110 b 425 736 31 593 193 736 b 815 340 672 736 815 583 m 246 1111 b 382 975 321 1111 382 1050 b 246 839 382 899 321 839 b 108 975 169 839 108 899 b 246 1111 108 1050 169 1111 m 601 1111 b 738 975 676 1111 738 1050 b 601 839 738 899 676 839 b 464 975 525 839 464 899 b 601 1111 464 1050 525 1111 "},"è":{"ha":847,"x_min":0,"x_max":0,"o":"m 581 460 b 438 572 568 528 506 572 b 288 460 364 572 303 533 m 815 314 l 283 314 b 442 156 283 211 338 156 b 563 221 496 156 535 174 l 806 221 b 443 -24 765 53 606 -24 b 31 356 207 -24 31 110 b 425 736 31 593 193 736 b 815 340 672 736 815 583 m 368 1139 l 564 900 l 451 818 l 214 1028 "},"í":{"ha":419,"x_min":0,"x_max":0,"o":"m 336 0 l 83 0 l 83 713 l 336 713 m 168 818 l 56 900 l 251 1139 l 406 1028 "},"î":{"ha":419,"x_min":0,"x_max":0,"o":"m 336 0 l 83 0 l 83 713 l 336 713 m 207 1151 l 514 924 l 407 807 l 207 961 l 7 807 l -96 924 "},"ï":{"ha":419,"x_min":0,"x_max":0,"o":"m 336 0 l 83 0 l 83 713 l 336 713 m 32 1111 b 168 975 107 1111 168 1050 b 32 839 168 899 107 839 b -106 975 -44 839 -106 899 b 32 1111 -106 1050 -44 1111 m 388 1111 b 524 975 463 1111 524 1050 b 388 839 524 899 463 839 b 250 975 311 839 250 899 b 388 1111 250 1050 311 1111 "},"ì":{"ha":419,"x_min":0,"x_max":0,"o":"m 336 0 l 83 0 l 83 713 l 336 713 m 168 1139 l 364 900 l 251 818 l 14 1028 "},"ñ":{"ha":918,"x_min":0,"x_max":0,"o":"m 336 621 l 339 621 b 567 736 397 707 468 736 b 835 440 758 736 835 615 l 835 0 l 582 0 l 582 347 b 468 535 582 415 593 535 b 336 369 365 535 336 458 l 336 0 l 83 0 l 83 713 l 336 713 m 183 856 l 182 871 b 213 994 182 915 190 957 b 336 1072 238 1038 285 1072 b 563 1025 407 1072 507 1025 b 618 1075 597 1025 607 1046 l 736 1075 b 556 856 728 975 674 856 b 344 907 485 856 410 907 b 297 856 311 907 306 882 "},"ó":{"ha":919,"x_min":0,"x_max":0,"o":"m 460 736 b 889 356 689 736 889 599 b 460 -24 889 114 689 -24 b 31 356 232 -24 31 113 b 460 736 31 599 231 736 m 460 517 b 297 356 357 517 297 443 b 460 196 297 265 357 196 b 622 356 563 196 622 265 b 460 517 622 443 563 517 m 432 818 l 319 900 l 515 1139 l 669 1028 "},"ô":{"ha":919,"x_min":0,"x_max":0,"o":"m 460 736 b 889 356 689 736 889 599 b 460 -24 889 114 689 -24 b 31 356 232 -24 31 113 b 460 736 31 599 231 736 m 460 517 b 297 356 357 517 297 443 b 460 196 297 265 357 196 b 622 356 563 196 622 265 b 460 517 622 443 563 517 m 457 1151 l 764 924 l 657 807 l 457 961 l 257 807 l 154 924 "},"ö":{"ha":919,"x_min":0,"x_max":0,"o":"m 460 736 b 889 356 689 736 889 599 b 460 -24 889 114 689 -24 b 31 356 232 -24 31 113 b 460 736 31 599 231 736 m 460 517 b 297 356 357 517 297 443 b 460 196 297 265 357 196 b 622 356 563 196 622 265 b 460 517 622 443 563 517 m 282 1111 b 418 975 357 1111 418 1050 b 282 839 418 899 357 839 b 144 975 206 839 144 899 b 282 1111 144 1050 206 1111 m 638 1111 b 774 975 713 1111 774 1050 b 638 839 774 899 713 839 b 500 975 561 839 500 899 b 638 1111 500 1050 561 1111 "},"ò":{"ha":919,"x_min":0,"x_max":0,"o":"m 460 736 b 889 356 689 736 889 599 b 460 -24 889 114 689 -24 b 31 356 232 -24 31 113 b 460 736 31 599 231 736 m 460 517 b 297 356 357 517 297 443 b 460 196 297 265 357 196 b 622 356 563 196 622 265 b 460 517 622 443 563 517 m 404 1139 l 600 900 l 488 818 l 250 1028 "},"õ":{"ha":919,"x_min":0,"x_max":0,"o":"m 460 736 b 889 356 689 736 889 599 b 460 -24 889 114 689 -24 b 31 356 232 -24 31 113 b 460 736 31 599 231 736 m 460 517 b 297 356 357 517 297 443 b 460 196 297 265 357 196 b 622 356 563 196 622 265 b 460 517 622 443 563 517 m 185 856 l 183 871 b 214 994 183 915 192 957 b 338 1072 239 1038 286 1072 b 564 1025 408 1072 508 1025 b 619 1075 599 1025 608 1046 l 738 1075 b 557 856 729 975 675 856 b 346 907 486 856 411 907 b 299 856 313 907 307 882 "},"š":{"ha":713,"x_min":0,"x_max":0,"o":"m 554 529 b 418 564 515 550 461 564 b 339 515 389 564 339 551 b 453 453 339 467 418 460 b 660 242 571 429 660 374 b 324 -24 660 54 489 -24 b 36 58 222 -24 122 6 l 128 235 b 328 163 179 199 265 163 b 407 217 360 163 407 178 b 249 296 407 272 328 275 b 90 483 169 317 90 356 b 404 736 90 658 249 736 b 639 690 485 736 565 724 m 154 1151 l 354 996 l 554 1151 l 661 1033 l 354 807 l 51 1033 "},"ú":{"ha":915,"x_min":0,"x_max":0,"o":"m 332 713 l 332 332 b 458 178 332 242 354 178 b 585 332 563 178 585 242 l 585 713 l 838 713 l 838 283 b 458 -24 838 49 672 -24 b 79 283 244 -24 79 49 l 79 713 m 438 818 l 325 900 l 521 1139 l 675 1028 "},"û":{"ha":915,"x_min":0,"x_max":0,"o":"m 332 713 l 332 332 b 458 178 332 242 354 178 b 585 332 563 178 585 242 l 585 713 l 838 713 l 838 283 b 458 -24 838 49 672 -24 b 79 283 244 -24 79 49 l 79 713 m 456 1151 l 763 924 l 656 807 l 456 961 l 256 807 l 153 924 "},"ü":{"ha":915,"x_min":0,"x_max":0,"o":"m 332 713 l 332 332 b 458 178 332 242 354 178 b 585 332 563 178 585 242 l 585 713 l 838 713 l 838 283 b 458 -24 838 49 672 -24 b 79 283 244 -24 79 49 l 79 713 m 281 1111 b 417 975 356 1111 417 1050 b 281 839 417 899 356 839 b 143 975 204 839 143 899 b 281 1111 143 1050 204 1111 m 636 1111 b 772 975 711 1111 772 1050 b 636 839 772 899 711 839 b 499 975 560 839 499 899 b 636 1111 499 1050 560 1111 "},"ù":{"ha":915,"x_min":0,"x_max":0,"o":"m 332 713 l 332 332 b 458 178 332 242 354 178 b 585 332 563 178 585 242 l 585 713 l 838 713 l 838 283 b 458 -24 838 49 672 -24 b 79 283 244 -24 79 49 l 79 713 m 396 1139 l 592 900 l 479 818 l 242 1028 "},"ý":{"ha":908,"x_min":0,"x_max":0,"o":"m -21 713 l 271 713 l 461 347 l 647 713 l 935 713 l 364 -356 l 81 -356 l 324 97 m 447 818 l 335 900 l 531 1139 l 685 1028 "},"ÿ":{"ha":908,"x_min":0,"x_max":0,"o":"m -21 713 l 271 713 l 461 347 l 647 713 l 935 713 l 364 -356 l 81 -356 l 324 97 m 297 1111 b 433 975 372 1111 433 1050 b 297 839 433 899 372 839 b 160 975 221 839 160 899 b 297 1111 160 1050 221 1111 m 653 1111 b 789 975 728 1111 789 1050 b 653 839 789 899 728 839 b 515 975 576 839 515 899 b 653 1111 515 1050 576 1111 "},"ž":{"ha":776,"x_min":0,"x_max":0,"o":"m 733 210 l 733 0 l 11 0 l 346 503 l 56 503 l 56 713 l 767 713 l 433 210 m 186 1151 l 386 996 l 586 1151 l 693 1033 l 386 807 l 83 1033 "},"€":{"ha":953,"x_min":0,"x_max":0,"o":"m 868 785 b 643 861 833 824 758 861 b 410 692 497 861 432 789 l 807 692 l 756 553 l 394 553 b 393 517 393 544 393 529 b 394 471 393 500 393 482 l 725 471 l 674 333 l 417 333 b 644 188 440 242 510 188 b 868 261 742 188 829 224 l 868 22 b 614 -40 833 -3 750 -40 b 150 333 336 -40 194 90 l 22 333 l 74 471 l 138 471 b 136 514 136 483 136 497 b 138 553 136 529 136 540 l 22 553 l 74 692 l 149 692 b 613 1089 193 914 313 1089 b 868 1021 742 1089 833 1050 "}}}
